<svg version="1.1" xmlns="http://www.w3.org/2000/svg" xmlns:xlink="http://www.w3.org/1999/xlink" preserveAspectRatio="xMidYMid meet" viewBox="734 348 145 158"><g data-item-type="text" data-item="Business" id="logo__item--business" class="logo__item">
                <g class="logo__item__inner" transform="translate(737.46875 503.78667325914915) scale(1 1) rotate(0 0 0)">
                    <text data-part-id="logo__item--business" dy="0" dominant-baseline="auto" alignment-baseline="auto" font-family="Montserrat" font-size="32px" fill="#ffc0cb" letter-spacing="0" font-weight="bold" font-style="normal" data-font-family="Montserrat" data-font-weight="bold" data-font-style="normal" data-ttf-url="/builder_assets/fontsttf/font-montserrat-bold-normal.ttf">ViSumm</text>
                </g>
            </g><g data-item-type="image" data-item="Image" data-logo-item="" id="logo__item--logo_0" class="logo__item">
    <g class="logo__item__inner" transform="translate(731.269807647467 333.5) scale(1.4728804560050117 1.4728804560050117) rotate(0 0 0)">

<g>
	<path fill="#85efff" d="M57.176,51.636c1.587-0.338,3.001-0.831,4.463-1.277l10.759-16.031l-14.981-0.009l8.516-22.206   l-35.755-0.013l-4.018,32.637h15.277l-1.072,8.168C45.342,53.043,50.906,52.708,57.176,51.636z" data-part-id="logo__item--logo_0__0"></path>
	<path fill="#85efff" d="M39.528,59.252l-3.918,29.884l21.044-31.351C50.119,59.003,44.441,59.423,39.528,59.252z" data-part-id="logo__item--logo_0__1"></path>
	<path fill="#DD8A2E" d="M90.752,29.5c-0.403,1.112-1.515,3.102-3.372,5.482c-1.382,1.771-3.174,3.757-5.405,5.764   c-5.152,4.643-12.614,9.395-22.672,11.821C23.998,59.56,9.322,43.13,9.322,43.13c0.09,0.163,0.218,0.377,0.338,0.587   c0.216,0.368,0.487,0.802,0.816,1.284c2.955,4.32,10.773,12.536,28.692,13.152c4.909,0.172,10.586-0.247,17.124-1.466   c0.55-0.103,1.047-0.163,1.608-0.275C83.763,51.169,91.451,32.3,90.752,29.5z" data-part-id="logo__item--logo_0__2"></path>
</g>

    </g>
</g></svg>